<?xml version="1.0" encoding="UTF-8" standalone="no"?>
<svg
   xmlns:dc="http://purl.org/dc/elements/1.1/"
   xmlns:cc="http://creativecommons.org/ns#"
   xmlns:rdf="http://www.w3.org/1999/02/22-rdf-syntax-ns#"
   xmlns:svg="http://www.w3.org/2000/svg"
   xmlns="http://www.w3.org/2000/svg"
   xmlns:sodipodi="http://sodipodi.sourceforge.net/DTD/sodipodi-0.dtd"
   xmlns:inkscape="http://www.inkscape.org/namespaces/inkscape"
   width="330.80301"
   height="224.43721"
   id="svg1325"
   sodipodi:version="0.32"
   inkscape:version="0.92.2 (unknown)"
   sodipodi:docname="fontys-wit.svg"
   version="1.0"
   inkscape:output_extension="org.inkscape.output.svg.inkscape"
   sodipodi:modified="true">
  <metadata
     id="metadata1378">
    <rdf:RDF>
      <cc:Work
         rdf:about="">
        <dc:format>image/svg+xml</dc:format>
        <dc:type
           rdf:resource="http://purl.org/dc/dcmitype/StillImage" />
        <dc:title></dc:title>
      </cc:Work>
    </rdf:RDF>
  </metadata>
  <sodipodi:namedview
     inkscape:cy="100.47224"
     inkscape:cx="207.6111"
     inkscape:zoom="3.149911"
     guidetolerance="10.0"
     gridtolerance="10.0"
     objecttolerance="10.0"
     inkscape:window-height="1176"
     inkscape:window-width="1887"
     inkscape:pageshadow="2"
     inkscape:pageopacity="0.0"
     borderopacity="1.0"
     bordercolor="#666666"
     pagecolor="#ffffff"
     id="base"
     inkscape:window-x="33"
     inkscape:window-y="24"
     inkscape:current-layer="svg1325"
     borderlayer="false"
     showgrid="false"
     fit-margin-top="0"
     fit-margin-left="0"
     fit-margin-right="0"
     fit-margin-bottom="0"
     inkscape:window-maximized="1" />
  <defs
     id="defs1327" />
  <g
     id="g862"
     transform="translate(0,-15.569571)">
    <path
       style="fill:#fffffc;fill-opacity:1;fill-rule:evenodd;stroke:none;stroke-width:3.26242208"
       d="m 45.589372,220.47542 h -5.93761 v -7.21028 h -5.02087 v 18.86006 h 5.02087 v -8.08069 h 5.93761 v 8.08069 h 5.02087 v -18.86006 h -5.02087 v 7.21028"
       id="path1339"
       inkscape:connector-curvature="0" />
    <path
       style="fill:#fffffc;fill-opacity:1;fill-rule:evenodd;stroke:none;stroke-width:3.26242208"
       d="m 110.34192,221.93013 c 0,-0.77939 1.18426,-0.96894 2.24129,-0.96894 1.21035,0 2.75348,0.31972 3.77462,0.94284 l 0.36865,-3.36356 c -1.56922,-0.61301 -3.26242,-0.80255 -4.94583,-0.80255 -2.80242,0 -5.98981,1.31149 -5.98981,4.56119 0,5.08579 6.90655,3.40271 6.90655,5.77416 0,0.966 -0.96568,1.13239 -1.96071,1.13239 -1.7454,0 -3.42881,-0.47012 -4.56413,-0.96894 l -0.26752,3.52994 c 1.42894,0.46 2.91987,0.66521 5.09916,0.66521 3.18739,0 6.564,-0.93273 6.564,-4.69104 0,-5.35363 -7.23932,-3.6053 -7.23932,-5.79765"
       id="path1341"
       inkscape:connector-curvature="0" />
    <path
       style="fill:#fffffc;fill-opacity:1;fill-rule:evenodd;stroke:none;stroke-width:3.26242208"
       d="m 128.29829,228.87583 c -2.10426,0 -3.98994,-1.45472 -3.98994,-3.69633 0,-2.42072 1.61816,-3.88848 3.72242,-3.88848 1.15816,0 2.05207,0.24436 2.94271,0.77939 l 0.34582,-3.56876 c -1.09618,-0.53536 -2.39788,-0.77678 -3.86271,-0.77678 -4.63917,0 -8.18216,2.70128 -8.18216,7.37666 0,4.63916 3.52994,7.34045 8.18216,7.34045 1.28539,0 2.75348,-0.2026 3.96384,-0.6104 l -0.10113,-3.61803 c -0.80582,0.43097 -1.91178,0.66228 -3.02101,0.66228"
       id="path1343"
       inkscape:connector-curvature="0" />
    <path
       style="fill:#fffffc;fill-opacity:1;fill-rule:evenodd;stroke:none;stroke-width:3.26242208"
       d="m 143.08033,217.71182 c -2.10427,0 -3.64413,0.94284 -4.70115,2.39494 h -0.0522 v -8.25751 h -4.85449 v 20.2629 h 4.85449 v -5.93761 c 0,-3.021 1.01787,-4.39774 3.021,-4.39774 1.31149,0 2.24128,0.87791 2.24128,3.52994 v 6.80541 h 4.85775 v -8.78211 c 0,-2.91694 -1.54312,-5.61822 -5.37973,-5.61822"
       id="path1345"
       inkscape:connector-curvature="0" />
    <path
       style="fill:#fffffc;fill-opacity:1;fill-rule:evenodd;stroke:none;stroke-width:3.26242208"
       d="m 170.07034,232.1252 h 4.85775 v -20.2629 h -4.85775 z"
       id="path1347"
       inkscape:connector-curvature="0" />
    <path
       style="fill:#fffffc;fill-opacity:1;fill-rule:evenodd;stroke:none;stroke-width:3.26242208"
       d="m 204.64549,217.71182 c -2.21844,0 -4.15306,0.87792 -5.122,2.91693 h -0.0522 v -2.5871 h -4.42058 v 14.08355 h 4.85448 v -5.94055 c 0,-3.01806 1.01788,-4.3948 3.02101,-4.3948 1.31149,0 2.24128,0.87791 2.24128,3.52994 v 6.80541 h 4.85775 v -8.78212 c 0,-2.91693 -1.54313,-5.61821 -5.36669,-5.61821"
       id="path1349"
       inkscape:connector-curvature="0" />
    <path
       style="fill:#fffffc;fill-opacity:1;fill-rule:evenodd;stroke:none;stroke-width:3.26242208"
       d="m 131.25405,132.74856 -0.56114,5.42867 h 5.52002 l -2.93292,27.87087 h -5.37647 l -0.56114,5.42867 h 21.37213 l 0.55787,-5.42867 h -3.33745 l 2.54795,-24.30178 c 2.76653,-1.77149 5.26555,-2.66507 7.31435,-2.66507 3.021,0 4.16937,1.77149 3.74852,5.87562 l -2.21845,21.10428 h -3.021 l -0.55787,5.42867 h 21.14049 l 0.56114,-5.42867 h -5.30144 l 2.28044,-21.81875 c 0.82865,-7.92475 -2.76654,-12.55086 -9.63394,-12.55086 -4.09107,0 -8.91946,1.85958 -13.82614,5.33765 l 0.44369,-4.26758 h -18.15864"
       id="path1351"
       inkscape:connector-curvature="0" />
    <path
       style="fill:#fffffc;fill-opacity:1;fill-rule:evenodd;stroke:none;stroke-width:3.26242208"
       d="m 287.00855,147.54397 c -5.8234,-3.82356 -6.4595,-4.53803 -6.2181,-6.85761 0.1794,-1.77149 2.2804,-3.1975 4.525,-3.1975 3.3766,0 5.7222,2.21845 6.3976,5.96403 h 3.2852 l 1.2006,-11.3927 h -3.9149 l -0.1762,1.7715 c -2.0912,-1.23646 -4.6783,-1.95061 -7.7124,-1.95061 -8.0027,0 -14.33503,5.07274 -15.0495,11.92742 -0.34256,3.28852 0.80255,6.67818 3.3146,9.07573 1.057,0.89097 2.6002,2.30653 4.9067,4.17916 0.8156,0.71447 1.6312,1.32487 2.2804,1.85991 2.9949,2.03901 3.6833,3.021 3.4908,4.89363 -0.1892,1.86252 -2.3326,3.55604 -4.5478,3.55604 -4.0911,0 -7.1512,-3.10909 -7.81349,-7.82361 h -3.4647 l -1.34085,12.81838 h 3.34072 l 1.31149,-2.21551 c 2.24453,1.41296 5.25253,2.38189 9.08583,2.38189 8.6291,0 15.2682,-5.13537 15.9696,-11.91469 0.522,-4.98465 -1.6312,-8.19487 -8.8575,-13.08851"
       id="path1353"
       inkscape:connector-curvature="0" />
    <path
       style="fill:#fffffc;fill-opacity:1;fill-rule:evenodd;stroke:none;stroke-width:3.26242208"
       d="m 205.57528,120.83126 -13.2911,6.50168 -0.62313,5.30144 h -6.18229 l -0.58723,5.33765 -0.24142,0.17943 h 6.25732 l -2.101,20.88602 c -0.79277,7.99261 3.24938,12.97466 11.15096,12.97466 5.32427,0 7.79719,-0.6626 11.62075,-2.75349 0.26752,-0.15333 0.49589,-0.32983 0.68837,-0.54808 l -0.91674,-4.54815 c -4.05193,2.44682 -5.76144,2.02597 -8.10712,0.54809 h 0.0131 c -1.43873,-1.00776 -1.68015,-3.52994 -1.27234,-7.54566 l 1.91178,-18.97457 h 10.3484 l 0.54482,-5.40257 h -10.34514 l 1.13206,-11.9173"
       id="path1355"
       inkscape:connector-curvature="0" />
    <path
       style="fill:#fffffc;fill-opacity:1;fill-rule:evenodd;stroke:none;stroke-width:3.26242208"
       d="m 249.40266,138.17723 h 4.34555 l -10.50174,18.95141 -4.93278,-18.95141 h 4.41079 l 0.56114,-5.42867 h -21.85497 l -0.56113,5.42867 h 5.16115 l 8.48556,31.87093 -13.57168,23.25781 h 11.12486 l 26.91498,-55.12874 h 4.52498 l 0.56114,-5.42867 H 249.9638 l -0.56114,5.42867"
       id="path1357"
       inkscape:connector-curvature="0" />
    <path
       style="fill:#fffffc;fill-opacity:1;fill-rule:evenodd;stroke:none;stroke-width:3.26242208"
       d="m 46.431072,89.815089 c 0,0 23.90703,-6.919597 43.31518,-6.423708 20.416238,0.509264 39.697148,7.301626 43.599008,8.449673 2.70128,0.789506 5.78427,0.368979 6.52484,-2.231171 0.35561,-1.28572 0.55788,-4.293673 -4.47278,-8.730241 C 120.93174,68.188494 103.65069,63.751926 103.65069,63.751926 77.463232,36.468128 54.662172,32.797903 54.662172,32.797903 c 7.67321,8.195204 11.39564,29.961921 8.6813,30.878661 C 20.038082,76.941898 7.6245719,103.24648 7.6245719,103.24648 10.798902,100.60751 24.295542,88.132006 54.766562,82.970854 c -4.32271,3.503842 -8.33549,6.867399 -8.33549,6.867399"
       id="path1359"
       inkscape:connector-curvature="0" />
    <path
       style="fill:#fffffc;fill-opacity:1;fill-rule:evenodd;stroke:none;stroke-width:3.26242208"
       d="m 77.743802,37.384901 c 13.73806,6.870628 25.714408,23.756761 25.714408,23.756761 -3.41249,-16.631664 -26.556108,-47.918281 -26.200508,-45.432336 1.61816,11.190086 0.4861,21.675575 0.4861,21.675575"
       id="path1361"
       inkscape:connector-curvature="0" />
    <path
       style="fill:#fffffc;fill-opacity:1;fill-rule:evenodd;stroke:none;stroke-width:3.26242208"
       d="m 38.555592,118.16912 -0.57419,5.78721 h 5.52002 l -1.91178,19.15368 0.075,0.15334 -0.17944,-0.078 c -6.98158,-0.58724 -13.37919,-1.98715 -19.24176,-4.17949 -7.02073,-2.74044 -14.7689901,-7.40537 -16.7590601,-14.22384 -2.49576,-9.54291 3.87575,-16.90946 8.3974701,-20.4394 l -0.12723,8.24447 c 2.42398,-7.87549 8.48882,-15.10175 8.48882,-15.10175 -15.0626001,8.29634 -19.6756701,16.37703 -21.39823013,22.20045 -0.70142,2.6132 -0.58397,4.70148 -0.3295,6.98485 0.95589003,5.27534 4.14001003,9.04702 7.95052003,12.19493 8.6910901,6.93265 19.7931101,10.44954 32.2164201,12.0938 l 0.19248,-0.0519 -0.0783,0.15333 -1.46483,14.69395 h -5.32753 l -0.57092,5.78428 h 24.24958 l 0.57418,-5.78428 h -5.45476 l 1.37674,-13.93054 -0.0881,-0.18955 0.21532,0.0884 c 4.80555,0.0519 11.92742,-0.0884 11.92742,-0.0884 l 1.14837,-12.68071 h -3.24937 l -1.53008,4.39742 c -2.84157,0.26752 -6.67818,0.21565 -7.46768,0.2026 l -0.22837,0.10407 0.14028,-0.2313 0.14029,-1.55324 1.78128,-17.91723 h 13.99579 l -0.70142,7.03379 h 5.96371 l 1.28539,-12.83405 h -38.94353"
       id="path1363"
       inkscape:connector-curvature="0" />
    <path
       style="fill:#fffffc;fill-opacity:1;fill-rule:evenodd;stroke:none;stroke-width:3.26242208"
       d="m 101.81721,131.67849 c 12.90941,0 21.10135,8.45978 19.85184,20.39014 -0.57092,5.51708 -3.13192,10.3223 -7.52967,14.15891 -4.70441,4.08814 -9.78726,5.87268 -16.732958,5.87268 -12.82132,0 -21.27099,-8.53776 -20.05737,-20.12262 1.23319,-11.83933 11.39238,-20.29911 24.477948,-20.29911 z m -10.273358,20.56663 c -1.07008,10.23422 1.05702,15.32001 6.21817,15.32001 5.428668,0 8.629108,-4.98466 9.712228,-15.32001 1.05703,-10.14287 -1.13532,-15.40548 -6.29647,-15.40548 -5.516758,0 -8.511658,4.80261 -9.633928,15.40548"
       id="path1365"
       inkscape:connector-curvature="0" />
    <path
       style="fill:#fffffc;fill-opacity:1;fill-rule:evenodd;stroke:none;stroke-width:3.26242208"
       d="m 82.418852,218.04165 v 2.53784 h -0.0489 c -1.02114,-1.72224 -2.70129,-2.85462 -4.77945,-2.85462 -4.37165,0 -6.34868,3.13519 -6.34868,7.31435 0,4.15339 2.39788,7.07293 6.27038,7.07293 1.93788,0 3.56909,-0.75329 4.73051,-2.39462 h 0.0489 v 0.75036 c 0,2.75348 -1.50398,4.07803 -4.31945,4.07803 -2.02596,0 -3.26242,-0.43358 -4.75335,-1.1611 l -0.24142,3.83661 c 1.13206,0.4078 3.04384,0.88053 5.37647,0.88053 5.67009,0 8.48883,-1.85958 8.48883,-7.6468 V 218.0286 h -4.39775 z m -3.4027,10.3484 c -1.45178,0 -2.75023,-1.23646 -2.75023,-3.4288 0,-1.90885 0.94284,-3.50385 2.75023,-3.50385 2.17929,0 3.0993,1.7454 3.0993,3.3143 0,2.15352 -1.37675,3.61835 -3.0993,3.61835"
       id="path1367"
       inkscape:connector-curvature="0" />
    <path
       style="fill:#fffffc;fill-opacity:1;fill-rule:evenodd;stroke:none;stroke-width:3.26242208"
       d="m 103.91821,225.6134 c 0,-4.18209 -1.88568,-7.88853 -7.099028,-7.88853 -4.37164,0 -7.52967,2.70128 -7.52967,7.34045 0,4.65221 3.52994,7.37666 8.18216,7.37666 1.80738,0 3.591918,-0.25447 5.161148,-0.89064 v -3.42881 c -1.45504,0.7794 -2.972068,1.07008 -4.296608,1.07008 -2.36852,0 -3.85945,-0.75069 -4.12696,-2.68824 h 9.722008 v -0.87792 z m -9.787258,-1.87556 c 0.10113,-1.60511 0.94284,-2.92966 2.70128,-2.92966 1.93788,0 2.68824,1.3115 2.68824,2.92966 h -5.40257"
       id="path1369"
       inkscape:connector-curvature="0" />
    <path
       style="fill:#fffffc;fill-opacity:1;fill-rule:evenodd;stroke:none;stroke-width:3.26242208"
       d="m 158.98463,217.71182 c -4.63916,0 -8.18215,2.70128 -8.18215,7.3796 0,4.63622 3.52994,7.34045 8.18215,7.34045 4.63917,0 8.18216,-2.69118 8.18216,-7.34045 0,-4.66527 -3.52994,-7.3796 -8.18216,-7.3796 z m 0,11.32745 c -2.24454,0 -3.16128,-1.85958 -3.16128,-3.93774 0,-2.10133 0.91674,-3.96091 3.16128,-3.96091 2.24455,0 3.16129,1.85958 3.16129,3.96091 0,2.07816 -0.90695,3.93774 -3.16129,3.93774"
       id="path1371"
       inkscape:connector-curvature="0" />
    <path
       style="fill:#fffffc;fill-opacity:1;fill-rule:evenodd;stroke:none;stroke-width:3.26242208"
       d="m 192.4995,225.6134 c 0,-4.18209 -1.88568,-7.88853 -7.09577,-7.88853 -4.37165,0 -7.53294,2.70128 -7.53294,7.34045 0,4.65221 3.52995,7.37666 8.18216,7.37666 1.81064,0 3.59193,-0.25447 5.1481,-0.89064 v -3.42881 c -1.45178,0.7794 -2.9688,1.07008 -4.29335,1.07008 -2.37178,0 -3.8627,-0.75069 -4.13022,-2.68824 h 9.72202 v -0.87792 z m -9.78727,-1.87556 c 0.1044,-1.60511 0.94284,-2.92966 2.70455,-2.92966 1.93461,0 2.68823,1.3115 2.68823,2.92966 h -5.40257"
       id="path1373"
       inkscape:connector-curvature="0" />
    <path
       style="fill:#fffffc;fill-opacity:1;fill-rule:evenodd;stroke:none;stroke-width:3.26242208"
       d="m 61.379492,217.71182 c -4.63916,0 -8.18215,2.70128 -8.18215,7.3796 0,4.63622 3.52994,7.34045 8.18215,7.34045 4.63917,0 8.18216,-2.69118 8.18216,-7.34045 0,-4.66527 -3.52994,-7.3796 -8.18216,-7.3796 z m 0,11.32745 c -2.23149,0 -3.16128,-1.85958 -3.16128,-3.93774 0,-2.10133 0.92,-3.96091 3.16128,-3.96091 2.24455,0 3.16129,1.85958 3.16129,3.96091 0,2.07816 -0.90695,3.93774 -3.16129,3.93774"
       id="path1375"
       inkscape:connector-curvature="0" />
    <rect
       ry="5.3032999"
       y="15.873464"
       x="0"
       height="224.13332"
       width="330.80301"
       id="rect838"
       style="fill:#663366;fill-opacity:0;stroke:none;stroke-width:75.59055328;stroke-linecap:round;stroke-linejoin:round;stroke-miterlimit:4;stroke-dasharray:none;stroke-dashoffset:0;stroke-opacity:1" />
  </g>
</svg>
